# xmcd
#
# Track frame offsets: 
#        182
#        4550
#        28892
#        53857
#        77545
#        100475
#        122607
#        147105
#        171707
#        197505
#        228230
#
# Disc length: 3071 seconds
#
# Revision: 0
# Processed by: cddbd v1.5.2PL0 Copyright (c) Steve Scherf et al.
# Submitted via: ExactAudioCopyFreeDBPlugin 1.0
#
DISCID=8b0bfd0b
DTITLE=Romeo AND - Romeo And You
DYEAR=1993
DGENRE=R&B
TTITLE0=Romeo And You (A Vocal Opera)
TTITLE1=For You (I'll Do Anything)
TTITLE2=Let Me Do Ya
TTITLE3=Sex You
TTITLE4=Answer Your Prayers
TTITLE5=Settle Down
TTITLE6=If Only You Could See In Me
TTITLE7=All I Have To Do Is
TTITLE8=Didn't Wanna Make You Cry
TTITLE9=That's What Love Is
TTITLE10=Vintertainment Recording Promo Jingle
EXTD=
EXTT0=
EXTT1=
EXTT2=
EXTT3=
EXTT4=
EXTT5=
EXTT6=
EXTT7=
EXTT8=
EXTT9=
EXTT10=
PLAYORDER=
